<mxfile host="www.draw.io" modified="2020-01-13T03:43:21.460Z" agent="Mozilla/5.0 (Macintosh; Intel Mac OS X 10_14_2) AppleWebKit/537.36 (KHTML, like Gecko) Chrome/79.0.3945.88 Safari/537.36" etag="bq3SA0DhBjH0S7VBCVMF" version="12.5.1" type="github">
  <diagram id="C5RBs43oDa-KdzZeNtuy" name="Page-1">
    <mxGraphModel dx="946" dy="515" grid="1" gridSize="10" guides="1" tooltips="1" connect="1" arrows="1" fold="1" page="1" pageScale="1" pageWidth="827" pageHeight="1169" math="0" shadow="0">
      <root>
        <mxCell id="WIyWlLk6GJQsqaUBKTNV-0"/>
        <mxCell id="WIyWlLk6GJQsqaUBKTNV-1" parent="WIyWlLk6GJQsqaUBKTNV-0"/>
        <mxCell id="0efMppfPj25u1ywOsLX--0" value="App" style="rounded=1;whiteSpace=wrap;html=1;fillColor=#f5f5f5;strokeColor=#666666;fontColor=#333333;" vertex="1" parent="WIyWlLk6GJQsqaUBKTNV-1">
          <mxGeometry x="90" y="140" width="270" height="150" as="geometry"/>
        </mxCell>
        <mxCell id="0efMppfPj25u1ywOsLX--17" style="edgeStyle=orthogonalEdgeStyle;rounded=0;orthogonalLoop=1;jettySize=auto;html=1;exitX=0;exitY=0.5;exitDx=0;exitDy=0;entryX=1;entryY=0.5;entryDx=0;entryDy=0;" edge="1" parent="WIyWlLk6GJQsqaUBKTNV-1" source="0efMppfPj25u1ywOsLX--5" target="0efMppfPj25u1ywOsLX--12">
          <mxGeometry relative="1" as="geometry"/>
        </mxCell>
        <mxCell id="0efMppfPj25u1ywOsLX--18" value="watch" style="text;html=1;align=center;verticalAlign=middle;resizable=0;points=[];labelBackgroundColor=#ffffff;" vertex="1" connectable="0" parent="0efMppfPj25u1ywOsLX--17">
          <mxGeometry x="0.1238" y="-2" relative="1" as="geometry">
            <mxPoint as="offset"/>
          </mxGeometry>
        </mxCell>
        <mxCell id="0efMppfPj25u1ywOsLX--20" style="edgeStyle=orthogonalEdgeStyle;rounded=0;orthogonalLoop=1;jettySize=auto;html=1;exitX=0.5;exitY=1;exitDx=0;exitDy=0;" edge="1" parent="WIyWlLk6GJQsqaUBKTNV-1" source="0efMppfPj25u1ywOsLX--5" target="0efMppfPj25u1ywOsLX--19">
          <mxGeometry relative="1" as="geometry"/>
        </mxCell>
        <mxCell id="0efMppfPj25u1ywOsLX--23" value="更新" style="text;html=1;align=center;verticalAlign=middle;resizable=0;points=[];labelBackgroundColor=#ffffff;" vertex="1" connectable="0" parent="0efMppfPj25u1ywOsLX--20">
          <mxGeometry x="0.0286" y="-1" relative="1" as="geometry">
            <mxPoint as="offset"/>
          </mxGeometry>
        </mxCell>
        <mxCell id="0efMppfPj25u1ywOsLX--5" value="App" style="rounded=1;whiteSpace=wrap;html=1;fillColor=#f5f5f5;strokeColor=#666666;fontColor=#333333;" vertex="1" parent="WIyWlLk6GJQsqaUBKTNV-1">
          <mxGeometry x="440" y="140" width="270" height="150" as="geometry"/>
        </mxCell>
        <mxCell id="0efMppfPj25u1ywOsLX--1" value="CoolHealth" style="ellipse;whiteSpace=wrap;html=1;fillColor=#f8cecc;strokeColor=#b85450;" vertex="1" parent="WIyWlLk6GJQsqaUBKTNV-1">
          <mxGeometry x="250" y="240" width="90" height="40" as="geometry"/>
        </mxCell>
        <mxCell id="0efMppfPj25u1ywOsLX--4" value="FeeperService" style="rounded=1;whiteSpace=wrap;html=1;" vertex="1" parent="WIyWlLk6GJQsqaUBKTNV-1">
          <mxGeometry x="515" y="185" width="120" height="60" as="geometry"/>
        </mxCell>
        <mxCell id="0efMppfPj25u1ywOsLX--10" style="edgeStyle=orthogonalEdgeStyle;rounded=0;orthogonalLoop=1;jettySize=auto;html=1;entryX=0;entryY=0.25;entryDx=0;entryDy=0;" edge="1" parent="WIyWlLk6GJQsqaUBKTNV-1" source="0efMppfPj25u1ywOsLX--7" target="0efMppfPj25u1ywOsLX--8">
          <mxGeometry relative="1" as="geometry"/>
        </mxCell>
        <mxCell id="0efMppfPj25u1ywOsLX--7" value="web" style="ellipse;whiteSpace=wrap;html=1;aspect=fixed;fillColor=#fff2cc;strokeColor=#d6b656;" vertex="1" parent="WIyWlLk6GJQsqaUBKTNV-1">
          <mxGeometry x="150" y="530" width="95" height="95" as="geometry"/>
        </mxCell>
        <mxCell id="0efMppfPj25u1ywOsLX--21" style="edgeStyle=orthogonalEdgeStyle;rounded=0;orthogonalLoop=1;jettySize=auto;html=1;exitX=0.5;exitY=0;exitDx=0;exitDy=0;entryX=0.5;entryY=1;entryDx=0;entryDy=0;" edge="1" parent="WIyWlLk6GJQsqaUBKTNV-1" source="0efMppfPj25u1ywOsLX--8" target="0efMppfPj25u1ywOsLX--19">
          <mxGeometry relative="1" as="geometry"/>
        </mxCell>
        <mxCell id="0efMppfPj25u1ywOsLX--22" value="查询" style="text;html=1;align=center;verticalAlign=middle;resizable=0;points=[];labelBackgroundColor=#ffffff;" vertex="1" connectable="0" parent="0efMppfPj25u1ywOsLX--21">
          <mxGeometry x="0.14" relative="1" as="geometry">
            <mxPoint as="offset"/>
          </mxGeometry>
        </mxCell>
        <mxCell id="0efMppfPj25u1ywOsLX--8" value="App" style="rounded=1;whiteSpace=wrap;html=1;fillColor=#f5f5f5;strokeColor=#666666;fontColor=#333333;" vertex="1" parent="WIyWlLk6GJQsqaUBKTNV-1">
          <mxGeometry x="440" y="540" width="270" height="150" as="geometry"/>
        </mxCell>
        <mxCell id="0efMppfPj25u1ywOsLX--9" value="FeeperAdmin" style="rounded=1;whiteSpace=wrap;html=1;" vertex="1" parent="WIyWlLk6GJQsqaUBKTNV-1">
          <mxGeometry x="515" y="585" width="120" height="60" as="geometry"/>
        </mxCell>
        <mxCell id="0efMppfPj25u1ywOsLX--11" value="http" style="text;html=1;align=center;verticalAlign=middle;resizable=0;points=[];autosize=1;" vertex="1" parent="WIyWlLk6GJQsqaUBKTNV-1">
          <mxGeometry x="332" y="608" width="40" height="20" as="geometry"/>
        </mxCell>
        <mxCell id="0efMppfPj25u1ywOsLX--12" value="zk" style="shape=cylinder;whiteSpace=wrap;html=1;boundedLbl=1;backgroundOutline=1;fillColor=#dae8fc;strokeColor=#6c8ebf;" vertex="1" parent="WIyWlLk6GJQsqaUBKTNV-1">
          <mxGeometry x="300" y="350" width="60" height="80" as="geometry"/>
        </mxCell>
        <mxCell id="0efMppfPj25u1ywOsLX--13" style="edgeStyle=orthogonalEdgeStyle;rounded=0;orthogonalLoop=1;jettySize=auto;html=1;exitX=0;exitY=0.5;exitDx=0;exitDy=0;" edge="1" parent="WIyWlLk6GJQsqaUBKTNV-1" source="0efMppfPj25u1ywOsLX--1" target="0efMppfPj25u1ywOsLX--12">
          <mxGeometry relative="1" as="geometry"/>
        </mxCell>
        <mxCell id="0efMppfPj25u1ywOsLX--14" value="write" style="text;html=1;align=center;verticalAlign=middle;resizable=0;points=[];labelBackgroundColor=#ffffff;" vertex="1" connectable="0" parent="0efMppfPj25u1ywOsLX--13">
          <mxGeometry x="-0.1135" y="-4" relative="1" as="geometry">
            <mxPoint as="offset"/>
          </mxGeometry>
        </mxCell>
        <mxCell id="0efMppfPj25u1ywOsLX--19" value="pg" style="shape=cylinder;whiteSpace=wrap;html=1;boundedLbl=1;backgroundOutline=1;fillColor=#d5e8d4;strokeColor=#82b366;" vertex="1" parent="WIyWlLk6GJQsqaUBKTNV-1">
          <mxGeometry x="545" y="360" width="60" height="80" as="geometry"/>
        </mxCell>
      </root>
    </mxGraphModel>
  </diagram>
</mxfile>
